<?xml version="1.0" encoding="utf-8"?>
<!-- Generator: Adobe Illustrator 21.1.0, SVG Export Plug-In . SVG Version: 6.00 Build 0)  -->
<svg version="1.1" xmlns="http://www.w3.org/2000/svg" xmlns:xlink="http://www.w3.org/1999/xlink" x="0px" y="0px"
	 viewBox="0 0 1190.6 841.9" style="enable-background:new 0 0 1190.6 841.9;" xml:space="preserve">
<style type="text/css">
	.st0{fill:#FFAD19;}
	.st1{font-family:'SpartanMB-Bold';}
	.st2{font-size:28.964px;}
</style>
<g id="Layer_1">
</g>
<g id="Capa_1">
	<g>
		<g>
			<path class="st0" d="M755.7,644.1c4.9-18.8,11.8-32.5,20.3-41.4c8.5-8.9,19.4-13.3,32.5-13.3c14.6,0,25.3,4.9,31.7,14.8
				c6.5,9.9,9.7,26.6,9.7,50.1V827h-28.5V639.2c0-14.1-1.5-23.5-4.7-28.7c-3-5.1-8.7-7.6-16.5-7.6c-12.5,0-23,8.2-31.3,24.5
				s-12.3,37-12.3,62.3v39.9h-28.7V629.5v-66.3V436.9H748h7L755.7,644.1z"/>
			<path class="st0" d="M501.7,595.7v41.6c-7.2-8.7-13.5-14.6-19.2-17.9c-5.5-3.4-12.2-4.9-19.6-4.9c-11.8,0-21.5,4.2-29.2,12.3
				c-7.8,8.2-11.6,18.6-11.6,31c0,12.7,3.8,23.2,11.2,31.3c7.6,8.2,17.3,12.2,29.1,12.2c7.4,0,14.1-1.7,19.9-4.9
				c5.5-3.2,12.2-9.3,19.6-18.4v41.2c-12.7,6.6-25.4,9.9-38,9.9c-20.9,0-38.4-6.8-52.4-20.3c-14.1-13.7-21.1-30.6-21.1-50.7
				c0-20.1,7.2-37.2,21.5-51.1c14.2-13.9,31.7-20.9,52.4-20.9C477.2,586.2,489.9,589.2,501.7,595.7"/>
			<path class="st0" d="M668,595.7v41.6c-7.2-8.7-13.5-14.6-19.2-17.9c-5.5-3.4-12.2-4.9-19.6-4.9c-11.8,0-21.5,4.2-29.2,12.3
				c-7.8,8.2-11.6,18.6-11.6,31c0,12.7,3.8,23.2,11.2,31.3c7.6,8.2,17.3,12.2,29.1,12.2c7.4,0,14.1-1.7,19.9-4.9
				c5.5-3.2,12.2-9.3,19.6-18.4v41.2c-12.7,6.6-25.4,9.9-38,9.9c-20.9,0-38.4-6.8-52.4-20.3c-14.1-13.7-21.1-30.6-21.1-50.7
				c0-20.1,7.2-37.2,21.5-51.1c14.2-13.9,31.7-20.9,52.4-20.9C643.5,586.2,656,589.2,668,595.7"/>
			<path class="st0" d="M991.6,590.4h31.1v134.4h-31.1v-14.1c-12.7,12-26.6,18-41.2,18c-18.6,0-34-6.6-46.1-20.1
				c-12-13.7-18-30.8-18-51.3c0-20.1,6.1-37,18-50.3c12-13.5,27.2-20.1,45.2-20.1c15.6,0,29.6,6.5,42.2,19.4V590.4z M917.9,657
				c0,12.9,3.4,23.4,10.4,31.5c7,8.2,16,12.3,26.8,12.3c11.6,0,20.9-4,27.9-12c7-8.2,10.6-18.6,10.6-31.1c0-12.5-3.6-23-10.6-31.1
				c-7-8-16.3-12-27.5-12c-10.6,0-19.6,4-26.8,12.2C921.5,635,917.9,645,917.9,657"/>
			<g>
				<polygon class="st0" points="331.9,585.6 331.7,586.2 331.9,586.2 				"/>
				<path class="st0" d="M340.2,691.6c-0.6,4.4-2.1,7.8-4.4,10.4c-2.3,2.7-5.1,4-8.5,4c-4.6,0-8.7-2.3-12.7-6.8
					c-4-4.6-7.8-11.4-11.2-20.5c3.4-7,6.5-14.4,9.1-22.2c2.8-7.8,5.3-15.8,7.4-23.9l11.8-46.3h-28.9l-10,42.2
					c-3.8-17.1-11.4-25.1-20.7-33.7c-9.3-8.5-21.1-12.9-35.7-12.9c-18.6,0-34.8,7.2-48.2,21.8c-13.5,14.6-20.3,31.5-20.3,51.1
					c0,21.6,6.5,39.5,19.7,53.6c13.1,14.2,29.6,21.3,49.6,21.3c12.9,0,24.3-3.2,34-9.5c9.5-6.3,18.4-16.3,26.8-30.4
					c3.8,15.6,7.8,26,11.8,31.5c4.2,5.7,9.7,8.4,16.7,8.4c6.6,0,11.6-2.8,14.8-8.5c3.2-5.7,4.9-14.4,4.9-26v-3.4H340.2z
					 M287.3,654.1c0,29.6-20.9,53.7-47,54.4c-0.2,0-0.3,0-0.5,0c-5.9,0.3-11.8-0.9-17.2-3.2c-0.1,0-0.2-0.1-0.3-0.1
					c-0.4-0.2-0.7-0.3-1.1-0.5c-17.8-8-30.4-27.6-30.4-50.6c0-30.1,21.6-54.5,48.3-54.5c25.8,0,46.8,22.8,48.2,51.5
					c0,0.1,0,0.2,0.1,0.3c0,0.1,0,0.2-0.1,0.3C287.2,652.5,287.3,653.3,287.3,654.1z"/>
			</g>
		</g>
		<g>
			<path class="st0" d="M667.1,389.4c0,32.4-10.2,61.1-31.5,81.1c-54.7,51.5-161.6,26.7-238.8-55.3c-77.2-82-95.4-190.2-40.7-241.7
				c21.2-20,50.3-28.4,82.5-26.5c-43.4-7.4-83.5,1-111.4,27.2c-60.4,56.8-40.8,175.7,43.7,265.5c84.5,89.8,202,116.6,262.4,59.8
				C661.2,473.1,672,433.4,667.1,389.4z"/>
			<g>
				<polygon class="st0" points="600.8,190.9 600.3,190.3 600.6,191 				"/>
				<path class="st0" d="M656,326.6c-2-8.1-4.6-15.9-7.7-23.4c-0.5-1.3-1.1-2.6-1.7-3.9c-2.2-4.8-4.1-9.7-6.4-14.4
					c-6.1-12.2-13.5-23.8-21.6-34.5c-1.8-2.4-3.7-4.8-5.6-7.1C552,168.7,453,134.9,391.8,167.7c-28.2,15.1-43.4,41.6-45.7,73.1
					c5.2-22.5,18.5-41.1,39.9-52.6c56.4-30.2,147.7,1,203.9,69.5c2.9,3.5,5.5,7,8.1,10.6c-17.5-12.8-31.3-14-47.1-14.1
					c-16.1-0.1-31.1,6.2-45,19.6c-17.8,17-27,39.1-27.4,66.2c-0.4,27.1,7.4,50.4,24.1,70.2c16.1,19.1,36.3,31.8,60.2,35.6
					c18.3,2.9,37.7-1.3,53.8-11.1c8.7-5.2,16-11.7,22-19c8.8-10.2,14.9-21.6,18.1-34C661.3,363.7,660.4,344.6,656,326.6z
					 M523.6,289.5c34.3-32.9,85.7-6.7,102.3,33.2c10.1,24.3,9.9,55.6-8.5,75.6c-0.1,0.2-0.3,0.3-0.4,0.5c-5.4,5.7-12,9.9-19.2,12.5
					c-0.1,0.1-0.3,0.1-0.4,0.2c-0.5,0.2-1,0.4-1.5,0.5c-23.8,8.2-52.5-0.1-72-23.3C498.3,358.2,498.2,313.8,523.6,289.5z"/>
			</g>
		</g>
	</g>
	<text transform="matrix(1 0 0 1 426.7184 65.0902)" class="st0 st1 st2">PRIMARY BRAND ICON</text>
</g>
</svg>
