<?xml version="1.0" encoding="utf-8"?>
<!-- Generator: Adobe Illustrator 21.1.0, SVG Export Plug-In . SVG Version: 6.00 Build 0)  -->
<svg version="1.1" id="Layer_1" xmlns="http://www.w3.org/2000/svg" xmlns:xlink="http://www.w3.org/1999/xlink" x="0px" y="0px"
	 viewBox="0 0 14.8 9.3" style="enable-background:new 0 0 14.8 9.3;" xml:space="preserve">
<style type="text/css">
	.st0{opacity:0;}
	.st1{fill:#FFFFFF;}
	.st2{fill:#FF5F00;}
	.st3{fill:#EB001B;}
	.st4{fill:#F79E1B;}
</style>
<title>Asset 1</title>
<g>
	<g class="st0">
		<rect x="-0.6" y="-0.7" class="st1" width="16" height="10.6"/>
	</g>
	<rect x="5.3" y="1.2" class="st2" width="4.2" height="6.9"/>
	<path class="st3" d="M5.7,4.6c0-1.3,0.6-2.6,1.7-3.4C5.5-0.3,2.8,0,1.3,1.9S0.1,6.6,2,8.1c1.6,1.2,3.8,1.2,5.4,0
		C6.4,7.2,5.7,6,5.7,4.6z"/>
	<path class="st4" d="M14.1,7.3V7.2h0.1v0H14v0h0.1L14.1,7.3L14.1,7.3z M14.4,7.3V7.2h0L14.4,7.3l-0.1-0.2h0v0.2h0V7.2l0,0.1
		L14.4,7.3l0-0.1L14.4,7.3L14.4,7.3z"/>
	<path class="st4" d="M14.5,4.6c0,2.4-2,4.4-4.4,4.4c-1,0-1.9-0.3-2.7-0.9c1.9-1.5,2.2-4.3,0.7-6.2C7.9,1.6,7.7,1.4,7.4,1.2
		c1.9-1.5,4.7-1.2,6.2,0.7C14.2,2.7,14.5,3.6,14.5,4.6L14.5,4.6z"/>
</g>
</svg>
