<svg id="Layer_1" data-name="Layer 1" xmlns="http://www.w3.org/2000/svg" xmlns:xlink="http://www.w3.org/1999/xlink" viewBox="0 0 22.34 7.21"><defs><style>.cls-1{fill:url(#linear-gradient);}</style><linearGradient id="linear-gradient" x1="0.74" y1="14.8" x2="0.75" y2="14.71" gradientTransform="translate(-179.7 -1216.13) scale(256 82.67)" gradientUnits="userSpaceOnUse"><stop offset="0" stop-color="#222357"/><stop offset="1" stop-color="#254aa5"/></linearGradient></defs><title>visa_16_16</title><path class="cls-1" d="M11.64,2.46c0,1,.9,1.57,1.58,1.9s.94.56.94.87c0,.47-.56.67-1.08.68a3.77,3.77,0,0,1-1.85-.44L10.9,7a5.44,5.44,0,0,0,2,.37C14.8,7.37,16,6.43,16,5c0-1.84-2.55-1.94-2.53-2.77,0-.25.24-.52.77-.58a3.4,3.4,0,0,1,1.78.31L16.38.46A4.84,4.84,0,0,0,14.69.15c-1.78,0-3,.95-3,2.31M19.43.28a.82.82,0,0,0-.77.51L16,7.26h1.89l.38-1h2.32l.22,1h1.67L21,.28H19.43m.27,1.89.55,2.62h-1.5l1-2.62M9.34.28l-1.49,7H9.65l1.49-7H9.34M6.67.28,4.79,5,4,1A.84.84,0,0,0,3.2.28H.13l0,.2a7.52,7.52,0,0,1,1.78.59.76.76,0,0,1,.43.61L3.73,7.26H5.64l2.93-7H6.67" transform="translate(-0.09 -0.15)"/></svg>